# xmcd
#
# Track frame offsets:
#	150
#	13027
#	30987
#	46117
#	58640
#	74052
#	87070
#	102285
#	121345
#	133987
#	148075
#	168577
#	182677
#	197282
#	212420
#
# Disc length: 3097 seconds
#
# Revision: 1
# Processed by: cddbd v1.5.1PL2 Copyright (c) Steve Scherf et al.
# Submitted via: audiograbber 1.83.01
#
DISCID=ce0c170f
DTITLE=Music Maestro Top Country Hits 90's Vol 47  - Mm6010
DYEAR=1900
DGENRE=Karaoke
TTITLE0=Chris Ledoux And Garth Brooks - Watcha Gonna Do With A Cowboy
TTITLE1=Martina McBride - That's Me
TTITLE2=Alabama - Take A Little Trip
TTITLE3=Travis Tritt - Here's A Quarter
TTITLE4=George Strait - So Much Like My Dad
TTITLE5=Trisha Yearwood - That's What I Like About You
TTITLE6=Tanya Tucker - If Your Heart Ain't Busy Tonight
TTITLE7=Pam Tillis - Maybe It Was Memphis
TTITLE8=Martina Mcbride - Time Has Come
TTITLE9=Holly Dunn - As Long As You Belong To Me
TTITLE10=Reba Mcentire - Night The Lights Went Out In Georgia
TTITLE11=Suzy Bogguss - Outbound Plane
TTITLE12=Highway 101 - Honky Tonk Baby
TTITLE13=Wynonna Judd - Little Bit Of Love
TTITLE14=Ricky Van Shelton - Keep It Between The Lines
EXTD=
EXTT0=
EXTT1=
EXTT2=
EXTT3=
EXTT4=
EXTT5=
EXTT6=
EXTT7=
EXTT8=
EXTT9=
EXTT10=
EXTT11=
EXTT12=
EXTT13=
EXTT14=
PLAYORDER=
